<?xml version="1.0" encoding="utf-8"?>
<!-- Generator: Adobe Illustrator 24.0.1, SVG Export Plug-In . SVG Version: 6.00 Build 0)  -->
<svg version="1.1" id="Layer_1" xmlns="http://www.w3.org/2000/svg" xmlns:xlink="http://www.w3.org/1999/xlink" x="0px" y="0px"
	 viewBox="0 0 474.3 428" style="enable-background:new 0 0 474.3 428;" xml:space="preserve">
<style type="text/css">
	.st0{fill:#4F4955;}
	.st1{fill:#E8C2B9;}
	.st2{fill:#DBACA2;}
	.st3{fill:#F6B894;}
	.st4{fill:#9496A6;}
	.st5{fill:#D8D6E3;}
	.st6{fill:#354863;}
	.st7{fill:#698EA8;}
	.st8{opacity:0.1;fill:#A7C7FC;enable-background:new    ;}
	.st9{fill:#FC4343;}
	.st10{fill:#CC6148;}
	.st11{fill:#CEA274;}
	.st12{fill:#3A3945;}
	.st13{fill:#EC3C3C;}
	.st14{opacity:0.3;fill:#5586FF;enable-background:new    ;}
	.st15{fill:#FECC91;}
	.st16{fill:#F3F5F6;}
	.st17{fill:#CCCEDF;}
	.st18{fill:#C99E95;}
	.st19{fill:url(#SVGID_1_);}
	.st20{fill:#2AAB56;}
	.st21{opacity:0.2;fill:#FFFFFF;enable-background:new    ;}
	.st22{fill:url(#SVGID_2_);}
	.st23{fill:url(#SVGID_3_);}
	.st24{fill:#568BFF;}
	.st25{fill:#FFFFFF;}
	.st26{fill:#3D69B7;}
	.st27{fill:#FF885E;}
	.st28{fill:#C1C1C1;}
	.st29{fill:#BABABA;}
	.st30{opacity:0.6;fill:#AAB1DE;enable-background:new    ;}
</style>
<title>girl_landing_page</title>
<g id="Layer_1-2">
	<path class="st0" d="M405.5,343.9l0.5,2.9l1.1,7.5l0.3,2l2.8,18.2l0.3,1.8l2.5,16l0.3,1.7l2.2,14.2l0.3,1.6l1.8,11.8h45.6l0.4-3
		l0.2-1.3l1.4-9.7l0.2-1.4l1.5-10.5l0.2-1.5l1.6-11.4l0.2-1.5l1.8-12.4l0.2-1.6l0,0l2.9-20.5l0.4-2.9L405.5,343.9z M470.2,365.8
		l-0.2,1.6l-1.8,12.5l-0.2,1.5l-1.7,11.5l-0.2,1.4l-1.5,10.7l-0.2,1.4l-1.4,9.8l-0.2,1.4l-0.5,3.2h-44l-1.5-9.6l-0.3-1.6l-2.2-14.1
		l-0.3-1.7l-2.5-15.9l-0.3-1.8l-2.8-18.1l-0.3-1.9l-1.4-9l-0.3-1.9h66.6l-0.3,1.9L470.2,365.8z"/>
	<rect x="417.6" y="421.6" class="st0" width="45.6" height="6.4"/>
	
		<rect x="424" y="382.4" transform="matrix(0.1153 -0.9933 0.9933 0.1153 29.2765 798.5682)" class="st0" width="77.9" height="0.9"/>
	
		<rect x="418.5" y="382.5" transform="matrix(8.750342e-02 -0.9962 0.9962 8.750342e-02 35.6533 804.9064)" class="st0" width="77.4" height="0.9"/>
	
		<rect x="413" y="382.7" transform="matrix(6.017743e-02 -0.9982 0.9982 6.017743e-02 41.8091 810.7376)" class="st0" width="77" height="0.9"/>
	<polygon class="st0" points="445,421.6 444.1,421.6 446.3,345 447.3,345 	"/>
	<rect x="439.5" y="345.3" class="st0" width="0.9" height="76.3"/>
	
		<rect x="416.4" y="343.9" transform="matrix(0.9934 -0.1144 0.1144 0.9934 -41.071 50.2099)" class="st0" width="0.9" height="77.9"/>
	
		<rect x="422.1" y="344.4" transform="matrix(0.9963 -8.628637e-02 8.628637e-02 0.9963 -31.4769 37.8926)" class="st0" width="0.9" height="77.4"/>
	
		<rect x="427.9" y="344.7" transform="matrix(0.9983 -5.791251e-02 5.791251e-02 0.9983 -21.4712 25.4526)" class="st0" width="0.9" height="77"/>
	<polygon class="st0" points="434.8,421.6 432.6,345 433.5,345 435.7,421.6 	"/>
	<polygon class="st0" points="471,367.3 471,367.3 470.7,368.8 470,367.4 466.1,359.9 465.3,358.4 460.6,349.3 460.6,349.3 
		459.8,347.7 459.3,346.8 458.3,344.8 457.8,343.9 458.9,343.9 459.4,344.8 460,346 460.3,346.8 460.8,347.5 465.5,356.7 
		465.5,356.8 466.3,358.2 466.3,358.2 470.2,365.8 	"/>
	<polygon class="st0" points="469,381.2 468.7,382.7 468,381.4 464.4,374.9 464.4,374.9 463.6,373.5 459.2,365.7 459.2,365.7 
		458.4,364.2 453.5,355.6 453.5,355.5 452.7,354.1 448.6,346.8 447.5,344.8 447,343.9 448,343.9 448.6,344.8 449.6,346.8 
		452.8,352.3 452.8,352.4 453.6,353.8 453.6,353.9 458.5,362.6 458.5,362.6 459.3,364 463.8,372 463.8,372 464.5,373.4 468.2,379.9 
			"/>
	<polygon class="st0" points="467.1,394.1 466.9,395.6 466.1,394.4 462.8,388.8 462,387.5 462,387.5 457.9,380.7 457.1,379.3 
		452.6,371.9 452.6,371.9 451.7,370.5 446.8,362.3 445.9,360.8 445.9,360.8 440.4,351.7 439.5,350.2 437.4,346.8 436.2,344.8 
		435.6,343.9 436.7,343.9 437.3,344.8 438.5,346.8 439.5,348.4 440.4,350 445.9,359.1 446.8,360.6 451.8,368.9 452.7,370.3 
		457.2,377.8 457.2,377.8 458,379.1 462.2,386 462.9,387.3 466.4,392.9 	"/>
	<polygon class="st0" points="465.4,406.1 465.2,407.5 464.4,406.4 461.3,401.5 460.5,400.3 456.7,394.5 456.7,394.5 455.9,393.2 
		455.9,393.2 451.7,386.8 451.7,386.8 450.8,385.5 446.3,378.5 445.4,377.1 440.4,369.4 439.5,368 433.9,359.5 433.9,359.5 433,358 
		433,358 426.8,348.6 426.8,348.6 425.8,347.1 425.8,347.1 425.6,346.8 424.4,344.8 423.8,343.9 424.9,343.9 425.5,344.8 
		425.7,345.2 425.7,345.2 426.7,346.8 426.7,346.8 432.9,356.2 433.9,357.7 439.5,366.3 440.4,367.7 445.4,375.5 445.4,375.5 
		446.3,376.9 450.9,383.9 451.8,385.3 456,391.7 456.8,393 460.7,398.9 461.5,400.1 464.6,405 	"/>
	<polygon class="st0" points="463.8,417.3 463.6,418.6 462.8,417.5 459.9,413.4 459.1,412.2 459.1,412.2 455.6,407.1 454.8,406 
		450.9,400.5 450,399.3 445.9,393.3 445,392 440.4,385.4 439.5,384.1 434.4,377 433.5,375.6 433.5,375.5 428,367.7 427.9,367.7 
		426.9,366.3 420.9,357.6 419.8,356.1 413.3,346.8 413.1,346.5 412,345 411.9,344.8 411.3,343.9 412.4,343.9 412.6,344.2 
		412.9,344.6 413.1,344.8 414.4,346.8 419.7,354.2 420.7,355.7 420.7,355.8 426.8,364.5 427.8,365.9 427.8,365.9 433.4,373.9 
		434.4,375.3 439.5,382.5 440.4,383.8 445,390.4 445.9,391.7 450.1,397.8 451,399 454.9,404.5 455.7,405.7 459.3,410.8 460.1,412 
		463,416.1 	"/>
	<polygon class="st0" points="427.9,421.6 426.6,421.6 426.4,421.3 425.8,420.6 425.4,420.2 421.1,415.6 420,414.4 416.9,411 
		415.8,409.8 415.5,408.1 416.6,409.4 419.8,412.8 420.9,414 420.9,414 425.3,418.7 426.3,419.8 427,420.6 	"/>
	<polygon class="st0" points="438.4,421.6 437.1,421.6 436.3,420.6 435.7,419.9 434.7,418.8 430.6,414.1 429.6,412.9 425.2,407.8 
		425.2,407.8 424.2,406.6 419.4,401 418.3,399.8 414.4,395.3 413.3,393.9 413,392.2 414.2,393.5 418.1,398.1 419.2,399.4 
		419.2,399.4 424.1,405 425.1,406.2 429.6,411.4 430.5,412.5 434.7,417.3 434.7,417.3 435.6,418.4 437.5,420.6 	"/>
	<polygon class="st0" points="448.3,421.6 447.1,421.6 446.4,420.6 445.1,419.1 444.2,418 440.4,413.2 439.5,412.1 435.3,406.9 
		434.3,405.7 429.8,400.1 428.8,398.9 423.9,392.8 422.9,391.5 417.5,384.9 416.5,383.6 411.7,377.6 410.5,376.2 410.3,374.4 
		411.4,375.8 416.3,381.8 417.4,383.2 422.8,389.9 422.8,389.9 423.8,391.2 428.8,397.3 429.7,398.5 434.3,404.2 434.3,404.2 
		435.3,405.4 439.5,410.6 440.4,411.8 444.3,416.5 445.1,417.7 447.6,420.6 	"/>
	<polygon class="st0" points="457.8,421.6 456.6,421.6 455.9,420.6 454.6,418.8 453.7,417.7 453.7,417.7 450.2,413 449.3,411.9 
		449.3,411.9 445.5,406.8 445.5,406.7 444.6,405.5 440.4,400 439.5,398.7 434.9,392.7 434.9,392.7 433.9,391.4 428.9,384.8 
		427.9,383.4 427.9,383.4 422.5,376.2 422.5,376.2 421.4,374.8 415.5,366.9 414.4,365.4 414.4,365.4 408.6,357.7 407.4,356.2 
		407.1,354.2 408.3,355.8 414.2,363.6 415.3,365 421.3,373 421.3,373.1 422.3,374.4 427.8,381.8 428.9,383.1 433.9,389.8 
		434.8,391.1 439.5,397.2 440.4,398.4 444.6,404.1 445.5,405.3 449.4,410.4 449.4,410.4 450.3,411.6 453.9,416.4 453.9,416.4 
		454.7,417.5 457.1,420.6 	"/>
	<rect x="405.5" y="343.9" class="st0" width="68.8" height="2.9"/>
	<polygon class="st1" points="458.3,428 453.2,428 419,227.1 433.8,227.1 	"/>
	<polygon class="st2" points="455.8,428 453.2,428 419,227.1 424,227.1 	"/>
	<polygon class="st1" points="343.6,428 348.7,428 382.9,227.1 368.1,227.1 	"/>
	<polygon class="st2" points="343.6,428 345.1,428 374.4,227.1 368.1,227.1 	"/>
	<path class="st3" d="M206.3,112.4c-0.6,3.9,18.2,27,25,36.7s20.9,29.3,24,32.9s10.7,3.5,18-3.4s18.7-19.8,22.3-25.6
		s10.4-19.1,11.1-24c0.5-3.8-4-6.8-1.5-11.6s7.4-12.3,8.2-16.6s0.9-9.2-3.7-3.4s-10.5,11.7-12.4,16.5s-0.1,10.4-0.9,12.3
		s-11.7,18.9-15.4,22.5S267.4,163,265.2,162s-17.9-35.8-28-47.7S208.1,101.8,206.3,112.4z"/>
	<rect x="143.8" y="410.8" class="st0" width="3.7" height="6.6"/>
	<path class="st0" d="M137.7,421.8c0,3.4,2.8,6.2,6.2,6.2s6.2-2.8,6.2-6.2c0-3.4-2.8-6.2-6.2-6.2l0,0
		C140.5,415.6,137.8,418.4,137.7,421.8C137.7,421.8,137.7,421.8,137.7,421.8L137.7,421.8z"/>
	<path class="st4" d="M139.3,421.8c0,3.4,2.8,6.2,6.2,6.2s6.2-2.8,6.2-6.2c0-3.4-2.8-6.2-6.2-6.2l0,0
		C142.1,415.6,139.3,418.4,139.3,421.8C139.3,421.8,139.3,421.8,139.3,421.8z"/>
	<polygon class="st4" points="137,406.3 137,414.8 198.5,402.9 	"/>
	<rect x="109.6" y="410.8" class="st0" width="3.7" height="6.6"/>
	<path class="st0" d="M103.6,421.8c0,3.4,2.8,6.2,6.2,6.2s6.2-2.8,6.2-6.2s-2.8-6.2-6.2-6.2l0,0
		C106.4,415.6,103.6,418.4,103.6,421.8z"/>
	<path class="st4" d="M105.2,421.8c0,3.4,2.8,6.2,6.2,6.2s6.2-2.8,6.2-6.2s-2.8-6.2-6.2-6.2l0,0C108,415.6,105.2,418.4,105.2,421.8
		L105.2,421.8z"/>
	<rect x="285.5" y="410.8" class="st0" width="3.6" height="6.6"/>
	<path class="st0" d="M279.5,421.8c0,3.4,2.8,6.2,6.2,6.2s6.2-2.8,6.2-6.2s-2.8-6.2-6.2-6.2l0,0
		C282.3,415.6,279.5,418.4,279.5,421.8z"/>
	<path class="st4" d="M281.1,421.8c0,3.4,2.8,6.2,6.2,6.2s6.2-2.8,6.2-6.2s-2.8-6.2-6.2-6.2l0,0
		C283.9,415.6,281.1,418.4,281.1,421.8L281.1,421.8z"/>
	<rect x="166.6" y="317.7" class="st0" width="31.6" height="2.7"/>
	<rect x="191.7" y="290.7" class="st5" width="13.6" height="103.4"/>
	<polygon class="st5" points="198.5,388.4 103.6,407 103.6,414.2 198.5,404.2 293.5,414.2 293.5,407 	"/>
	<path class="st4" d="M205.3,290.7v14.6c-4.6,0.8-9.1,1.9-13.6,3.3v-17.9H205.3z"/>
	<path class="st4" d="M159.8,326l10.8-5.7v-2.7h-10.4c-2.4,0-4.3,1.9-4.3,4.3v1.8C156.1,326.1,157.8,327.1,159.8,326z"/>
	<path class="st6" d="M269.5,274.8c0,9.3-5.5,16.2-12.9,16.2H138.3c-12.8,0-20.6-4.9-24.9-23.5S90.8,149.3,87.2,128.7
		c-1.2-6.8-0.4-13.8,2.3-20.2c7.9-5.8,18,0.1,21.5,13.8s17.9,101.9,20.2,115.1s11.7,24.5,31.9,24.5h97
		C264.7,263.8,269.5,268,269.5,274.8z"/>
	<path class="st7" d="M260.2,262h-97c-20.3,0-29.6-11.3-31.9-24.5c-2-11.5-13.1-79.3-18.3-106.1c-0.8-4.1-1.4-7.2-1.9-9.1
		c-3.5-13.7-13.6-19.6-21.5-13.8C93.7,98.5,102,92,108.7,92h24.1c10.1,0,31.9,10.3,38.6,33.3c0.8,2.9,1.7,6.2,2.6,9.8
		c6,24.4,12.7,61.4,16.5,79.4c4.3,20.6,9.3,46.6,28.1,46.6h36.9C257.1,261.1,258.7,261.4,260.2,262z"/>
	<path class="st8" d="M174,135.1c0,23.6-7.9,38.3-19.3,38.3c-10.6,0-20.4-8.1-29.6-25c-3.4-6.1-7.5-11.8-12.1-17
		c-0.8-4.1-1.4-7.2-1.9-9.1c-3.5-13.7-13.6-19.6-21.5-13.8C93.7,98.5,102,92,108.7,92h24.1c10.1,0,31.9,10.3,38.6,33.3
		C172.2,128.3,173.1,131.5,174,135.1z"/>
	<path class="st9" d="M169,45.8L169,45.8c-2,0.1-4-0.3-5.8-1.2c-3.5-1.6-5.5-5.2-5.1-9c0.5-3.6,3.4-6.2,7.8-6.9
		c0.4-0.1,0.9-0.1,1.4-0.1c5.9,0,14.3,5.6,16.9,10.2l0.1,0.2l0.6,3l-0.4,0.2C184,42.3,176,45.8,169,45.8z M167.2,29.8
		c-0.4,0-0.8,0-1.1,0.1c-3.8,0.7-6.3,2.9-6.8,5.9c-0.3,3.3,1.5,6.4,4.5,7.8c1.7,0.7,3.5,1.1,5.3,1c5.8,0,12.6-2.7,14.4-3.4l-0.4-1.9
		C180.5,35.1,172.6,29.8,167.2,29.8L167.2,29.8z"/>
	<path class="st9" d="M184.1,42.2h-0.5c-0.4,0-11.1-0.4-14.7-5.1c-1.6-2-2-4.7-0.9-7c1.3-2.6,4.4-3.8,7.9-2.8
		c4.1,1.2,8.6,8.2,8.9,12.5v0.1L184.1,42.2z M173.3,28c-1.8-0.1-3.5,0.9-4.3,2.5c-0.9,1.9-0.6,4.1,0.8,5.8
		c2.9,3.7,11.2,4.5,13.3,4.6l0.3-1.2c-0.4-3.9-4.4-10.3-8-11.3C174.7,28.1,174,28,173.3,28z"/>
	<path class="st3" d="M196.1,95.1c7.8,4.1,20.4,7.2,23,1.1V76.5l-21.2-7.5C198.1,77.8,197.4,86.5,196.1,95.1z"/>
	<path class="st10" d="M197.9,69.1c1.4,5.1,12.1,19.2,21.2,23V76.5L197.9,69.1z"/>
	<path class="st3" d="M195.8,66.9c3.6,5.1,23.3,16.9,28.1,16.9s12.4-10.9,13.4-15.1s-1.6-10-0.8-13.6c0.1-0.5,0.3-1.1,0.4-1.6
		c1-5.4,1.2-11,0.5-16.5c-0.7-5.7-3.4-11-7.7-14.8c-4.1-3.7-9.8-6.3-17.4-6.3c-16.3,0-24.2,10.9-25.4,21.1S192.2,61.7,195.8,66.9z"
		/>
	<path class="st11" d="M143.7,140.5c3.5,10.7,16.4,19.1,24.5,17.1C166.3,145.3,150.9,136.9,143.7,140.5z"/>
	<path class="st10" d="M206.8,28.5c0,0,0.2,6.3,5.6,14.5c4.9,7.5,18.3,9.9,24.6,10.5c1-5.4,1.2-11,0.5-16.5
		c-0.7-5.7-3.4-11-7.7-14.8c-4.1-0.1-7.1-0.1-7.1-0.1L206.8,28.5z"/>
	<path class="st12" d="M201,54.3c8.2-2.8,13.2-17,15.4-24.2c2.2,7.6,1.8,11.9,0.7,14.3c3.4,3.3,15.8,5.3,23.2,3
		c4.5-9.7-1.9-33.9-21.8-37c-18.1-2.8-29.9,4.6-33.9,20.3c-5.8,22.5,9.7,33.9,12.3,37.4c-6.1-12.1-8.7-19.4-5.8-19.5
		C194.8,48.6,201,54.3,201,54.3z"/>
	<path class="st12" d="M217.8,11.3c-0.2-1.3-0.5-2.6-1-3.9c-0.4-1.3-1.1-2.5-1.9-3.5c-0.8-1.1-1.9-1.9-3.1-2.5
		c-1.2-0.6-2.5-1-3.8-1.3c1.4,0.2,2.7,0.5,4,1c1.3,0.5,2.5,1.4,3.4,2.4c0.9,1.1,1.7,2.3,2.2,3.6c0.6,1.3,1,2.6,1.3,4L217.8,11.3z"/>
	<path class="st3" d="M196.8,51.1c-2.3-3.4-7-4.2-8.1-2.5s-1.1,9.3,3.5,13.4c4,2.8,5.1,2,5.1,2L196.8,51.1z"/>
	<path class="st12" d="M220,12.6c-3.3-6-9.4-11.9-19.6-12.1c-7.5-0.2-13.6,3.3-18.9,8.2s-6.2,12.1-5,17.2s6.4,13.4,8.8,16.2
		C182.3,22.5,199.1,6.6,220,12.6z"/>
	<path class="st9" d="M218.4,10.4c-2.2,0.1-4.3,0.1-6.5,0.2c-2.1,0.1-4.3,0.4-6.4,0.8c-4.2,0.7-8.1,2.6-11.3,5.4
		c-3.1,2.9-5.5,6.5-7.1,10.4c-1.7,4-3,8-4,12.2c0.3-2.2,0.7-4.3,1.2-6.4c0.5-2.1,1.2-4.2,2-6.2c1.5-4.1,4-7.9,7.2-10.9
		c1.7-1.5,3.5-2.7,5.6-3.6c2-0.9,4.1-1.5,6.3-1.8C209.7,10,214.1,9.9,218.4,10.4z"/>
	<path class="st9" d="M218.6,10.5c-4.1,0.9-8.2,1.4-12,2.8c-3.9,1.3-7.5,3.2-10.7,5.8c-3.2,2.6-5.8,5.7-7.9,9.2
		c-2,3.6-3.6,7.4-4.8,11.3c0.4-2,0.9-4,1.5-6c0.7-2,1.5-3.9,2.5-5.8c2-3.7,4.7-7,8-9.7c3.3-2.6,7.1-4.6,11.1-5.8
		c2-0.6,4.1-1,6.1-1.3C214.5,10.8,216.6,10.7,218.6,10.5z"/>
	<path class="st3" d="M348.5,419.7c-5.4,0.9-13.6,1.9-16.6-0.6s-6.6-9.6-8.7-11.1s-8.8-4.3-11.5-5.4s-7.3-3.2-5.9-9
		s4.8-7.4,4.2-14.6c-0.4-5.1-2.8-20.3-4.2-28.6c-0.1-0.9-0.3-1.7-0.4-2.4c0-0.3-0.1-0.5-0.1-0.8c0-0.1,0-0.2-0.1-0.4l-0.3-1.9
		l19.2-1.5c0,0.2,0.1,0.4,0.1,0.7s0.1,0.8,0.1,1.2c0.1,1.3,0.2,3,0.3,4.9c0.1,1.7,0.1,3.6,0.2,5.6c0.2,7.8,0.3,17,0.4,21.9
		c0.1,8.4,3.8,20.9,8.9,25.4s12.1,11.2,14.8,12.2S353.8,418.8,348.5,419.7z"/>
	<path class="st10" d="M324.6,350.3c-5.2-1-14.9-1-19.1-2.3c0-0.3-0.1-0.5-0.1-0.8c0-0.1,0-0.2-0.1-0.4l-0.3-1.9l19.2-1.5
		c0,0.2,0.1,0.4,0.1,0.7s0.1,0.8,0.1,1.2C324.4,346.6,324.5,348.3,324.6,350.3z"/>
	<path class="st13" d="M327.8,256.1c-1.3,18.3-1,78.1-1.6,87.7v0.8c-0.6,0.3-1.2,0.6-1.9,0.8c-6.2,1.5-12.6,2.1-19,1.8h-0.3
		c-0.7-0.1-1.5-0.2-2.2-0.4c-1.3-6.2-3.3-17.6-5.2-29.2c-2.9-17.1-5.8-34.4-5.8-34.4s-4.3-17.1-9.6-19.3s-63.2-2.6-70.1-14.5
		s-3.2-38.2-3.2-38.2l24.4-10.9c7,8.7,47,21.1,61.7,23.6c4.1,0.7,8.2,1.7,12.1,3.2C317.8,231.1,329,239.2,327.8,256.1z"/>
	<path class="st14" d="M311.2,285.4c-4.8,12.2-9.7,23.5-13.6,32.2c-2.9-17.1-5.8-34.4-5.8-34.4s-4.2-17.1-9.5-19.3
		s-63.2-2.6-70.1-14.5s-3.2-38.3-3.2-38.3l24.4-10.9c7,8.7,47,21.1,61.7,23.6c4.1,0.7,8.2,1.7,12.1,3.2
		C327.9,241.6,323.6,253.4,311.2,285.4z"/>
	<path class="st3" d="M271.2,339.1c-1,0.9-2,1.8-2.9,2.8c-1.9,2.2-3.7,4.6-5.3,7.1c-6.6,10.4-12.3,21.3-17,32.7
		c-2.4,6.7-2.4,19-1.9,25.1s3.3,7,6.8,7s10.1,2.8-4.7,6.4c-4.9,1.2-7.4-0.4-10.5-3.4s-3.7-12.9-4.9-16.7s-5.6-6.7-8.2-10.4
		s-3.4-9.5,0-13.3s9.3-4,13-10c2.9-4.8,11.4-24.7,15.6-34.5l0,0c1.1-2.7,2-4.6,2.3-5.2C256,328.3,260.5,334.1,271.2,339.1z"/>
	<path class="st10" d="M268.4,342c-1.9,2.2-3.7,4.6-5.3,7.1c-4.7-5.2-9-10.7-11.8-17.1l0,0C256.2,333.6,262.8,337.9,268.4,342z"/>
	<path class="st13" d="M228.8,191.8c0,0-35.2,0-40.7-1.8c-0.4,7.8-7.6,40.1-4.8,49c4.1,12.1,15,20.6,27.8,21.4
		c15.9,1.3,61.7,6.6,65.5,5.4c-4.9,11.4-21.9,53.2-26.9,63.9c6.8,10.5,16.9,13.6,23.2,15.9c8.2-11.7,47.2-76.9,44.9-98.3
		c-0.9-8.1-10.9-16.9-28.6-21.9s-39.8-12.8-44.6-14.8S230.2,198.3,228.8,191.8z"/>
	<path class="st15" d="M248.9,159.1c-4.7,9.5-4.8,20.7-4.1,48.7c0,0-24.2,5.8-43.5,4.1c-7.3-0.7-13.9-2.4-18.1-5.9
		c3.8-6.5,6.4-25.5,6.4-34.6c0-7-4.7-22.2-9-32.9c-1.1-2.8-2.3-5.5-3.7-8.2c3.3-10.8-1.5-26.3-2.8-33.6c3-0.8,8.4-1.4,14.3-1.7
		c7.8-0.4,16.5-0.5,21.1-0.4c0,0,10.6,0.1,14.2,0.8c1.3,0.6,2.4,1.4,3.4,2.3c7.6,6.5,24,24.8,26.3,31.3
		C256.1,137,252.4,152,248.9,159.1z"/>
	<path class="st11" d="M201.3,211.9c-7.3-0.7-13.9-2.4-18.1-5.9c3.8-6.5,6.4-25.5,6.4-34.6c0-7-4.7-22.2-9-32.9
		C184.8,141.9,203.4,164.9,201.3,211.9z"/>
	<path class="st5" d="M239.2,209.2c2,0,2.8-1.4,1.3-2.8c-2.4-2.4-6.6-5.5-12.1-5.3c-9,0.4-17.6,4.1-11.3,8.1L239.2,209.2z"/>
	<path class="st3" d="M220.7,183.8c4-1.2,10.2-3.2,12.4-2.5s10.6,6.8,10,8.6s-1.8,1.1-3.6,0s-8-4.7-9.3-3.9c1.6,2,8,8,9.2,9.6
		s0.7,3.3-2.9,1.4S220.7,183.8,220.7,183.8z"/>
	<path class="st3" d="M183.2,97.6c8.4,4.3,5.9,17.2-4.1,34.6c-9.3,16.3-20.4,33.9-21.7,38.7c10.9,4.8,43.2,25.5,46.6,26.1
		s6.3,0.8,9.5-2.9s5.6-10.4,7.2-10.4s9.5,6.8,11.1,9.3s9,11.5,7.5,12.9s-6.8-5.9-10.2-8.1c0,2.7,1.4,8.5-0.7,9s-1.6-4.9-2.7-6.3
		c-1.8,1.8-8.1,6.1-11.5,6.3s-12.2,0.1-17.6-1.3c-4.3-1.1-45.2-18.8-51.6-21.7s-12.2-6.1-7.9-17.4s20.8-52,24-57.9
		S173,92.4,183.2,97.6z"/>
	<path class="st12" d="M181.7,36.9c-2.3-2.1-4.2-4.6-5.7-7.4c-0.8-1.4-1.4-2.8-1.8-4.3c-0.5-1.5-0.7-3-0.7-4.6
		c0.3,3.1,1.3,6,3.1,8.5c1.6,2.6,3.6,4.9,6,6.8L181.7,36.9z"/>
	<path class="st12" d="M237.3,24.5c1.2,1.1,2.2,2.4,3,3.9c0.8,1.4,1.5,2.8,2.1,4.3c1.2,3,1.7,6.2,1.5,9.4c0-3.2-0.7-6.3-2.1-9.2
		c-0.7-1.4-1.4-2.8-2.3-4.1c-0.9-1.3-1.9-2.4-3-3.5L237.3,24.5z"/>
	<path class="st16" d="M78.2,209.2h389.5c1.3,0,2.4,1.1,2.4,2.4v2.9c0,1.3-1.1,2.4-2.4,2.4H78.2c-1.3,0-2.4-1.1-2.4-2.4v-2.9
		C75.8,210.3,76.9,209.2,78.2,209.2z"/>
	<path class="st17" d="M78.2,209.2h116.3c1.3,0,2.4,1.1,2.4,2.4v2.9c0,1.3-1.1,2.4-2.4,2.4H78.2c-1.3,0-2.4-1.1-2.4-2.4v-2.9
		C75.8,210.3,76.9,209.2,78.2,209.2z"/>
	<rect x="90.1" y="216.9" class="st2" width="363.6" height="10.2"/>
	<rect x="90.1" y="216.9" class="st18" width="96.8" height="10.2"/>
	<polygon class="st1" points="198.6,428 193.6,428 159.4,227.1 174.2,227.1 	"/>
	<polygon class="st2" points="196.2,428 193.6,428 159.4,227.1 164.4,227.1 	"/>
	<polygon class="st1" points="84,428 89.1,428 123.3,227.1 108.5,227.1 	"/>
	<polygon class="st2" points="84,428 85.4,428 114.8,227.1 108.5,227.1 	"/>
	
		<linearGradient id="SVGID_1_" gradientUnits="userSpaceOnUse" x1="81.29" y1="435.19" x2="72.36" y2="302.09" gradientTransform="matrix(1 0 0 1 -8.69 -99)">
		<stop  offset="0" style="stop-color:#2CB860"/>
		<stop  offset="1" style="stop-color:#7FE67F"/>
	</linearGradient>
	<path class="st19" d="M53.7,260.2c0.8,4-2.8,6.5-1.8,10.8s4.3,7,5,9.4s-2.3,4.7-1.4,8.5s4,6.8,4.5,9.8s-1.8,4.7-1,6.9
		s2.8,3.2,4.1,5.8s-0.8,5.7,0,7.5s3.7,3.4,4.3,5.2s-1.9,4.7-1.5,5.9s2.8,3.8,5.2,6.5c2.6-5.5,3.1-16,3.3-18.5s2.7-5.6,3.1-9.3
		s-1.7-4.6-1.4-7.1s2.9-3.2,4.2-7.1s-2.2-8.8-1.9-13.4c0.1-1.3,0.5-2.6,1.2-3.7l0,0c1.6-2.9,4.1-5.3,4.2-7.5s-1.6-5.3-2.7-7.7
		c-0.4-0.7-0.7-1.5-1-2.3c-0.7-2.3,2.9-4.8,3.6-10.1c0-0.3,0.1-0.6,0.1-1c0.3-4.6-3.8-7.4-6.3-9c-0.6-0.3-1.1-0.7-1.5-1.2
		c-1-1.3,1.5-3.8,1-7.3c-0.1-0.6-0.3-1.1-0.5-1.7c-1.3-2.7-4.7-5.1-7-7.4c-0.8-0.8-1.4-1.7-1.8-2.7c-1.4-2.9-2-6.6-3-8.5
		c-2.3-4.2-8-6-12.8-7.8c1.7,1.3,5.1,7.7,5.5,10c0,0.4,0,0.8-0.2,1.2c-1,2.8-5.4,8-5.7,11.6c-0.1,1.5,0.3,3,1.2,4.3
		c1.3,2.2,3.3,4.1,3.5,5.5c0.1,0.8-0.6,2.2-1.5,3.9c-1.9,3.6-5,8.3-4.9,10.6c0.1,1,0.3,2,0.8,2.9C51.5,255.4,53.2,257.5,53.7,260.2z
		"/>
	<path class="st20" d="M51.8,203.2c2.7,2.3,5,5,6.7,8.2c1.7,3.1,3.1,6.4,4.2,9.7c2.2,6.7,3.8,13.7,4.8,20.7c1.1,7,1.7,14.1,2.3,21.1
		s1,14.1,1.4,21.2c0.7,14.1,1.1,28.3,1.1,42.4c0,7.1-0.2,14.1-0.3,21.2l-0.1,21.2h-2.7l0.4-21.2c0.2-7.1,0.5-14.1,0.6-21.2
		c0.2-14.1,0-28.3-0.5-42.4c-0.3-7.1-0.6-14.1-1-21.2c-0.4-7-1-14.1-1.9-21.1c-0.9-7-2.4-13.9-4.5-20.7c-1-3.4-2.4-6.6-4-9.8
		C56.7,208.3,54.5,205.5,51.8,203.2z"/>
	<path class="st21" d="M67.6,219.5c1.1,2.9,1.8,17.4,1.8,19.3s0.8,7.9,2.4,6.6s3.8-14.3,4.6-15.8l0,0c-1.3-2.7-4.7-5.1-7-7.4
		C68.6,221.4,68,220.5,67.6,219.5z"/>
	<path class="st21" d="M52.6,230.2c1.6,1.2,3.1,2.5,4.4,4c1.8,2.2,4.4,9.4,6,7.4c1.6-2-1.7-12.8-3-16.3c-1.2-3.4-3.4-9-3-10.9
		c-1,2.8-5.4,7.9-5.7,11.6C51.3,227.4,51.7,228.9,52.6,230.2z"/>
	<path class="st21" d="M73.2,267.3c0.8,0.4,6-9.3,6.8-11.1c1.1-2.2,2.3-4.4,3.6-6.4c0-0.3,0.1-0.6,0.1-1c0.3-4.6-3.8-7.4-6.3-9
		c0.4,2.8-1,12.5-2.6,16.6C73.3,260.4,72.5,266.9,73.2,267.3z"/>
	<path class="st21" d="M49.7,250.3c0.1,1,0.3,2.1,0.8,3c1,0.1,2,0.3,3,0.8c1.4,1,9.3,12.6,11.1,10.7c1.8-1.9-2.4-9.8-3.2-12.3
		s-5.9-10.6-6.9-12.8C52.7,243.2,49.7,248,49.7,250.3z"/>
	<path class="st21" d="M73,282.3c0.2,0.7,3.6-2.3,6.5-5l0,0c1.6-2.9,4.1-5.3,4.2-7.5s-1.6-5.3-2.7-7.7c-0.6,3.2-1.6,6.8-3.2,8.7
		C75.9,273.1,72.5,281,73,282.3z"/>
	
		<linearGradient id="SVGID_2_" gradientUnits="userSpaceOnUse" x1="90.0012" y1="429.0615" x2="161.4512" y2="371.5315" gradientTransform="matrix(1 0 0 1 -8.69 -99)">
		<stop  offset="0" style="stop-color:#2CB860"/>
		<stop  offset="1" style="stop-color:#7FE67F"/>
	</linearGradient>
	<path class="st22" d="M81.4,335.2c6.8-6.2,12.3-3.1,15.2-5s0.7-7.3,4.2-8.6c1.4-0.4,2.9-0.4,4.3,0.1c2,0.6,3.9,1.4,5.6,0.8
		c1.4-0.5,2.2-1.8,3-3.1s1.8-2.8,3.6-3.2c1.9-0.3,3.8-0.4,5.6-0.3l0,0c2.6,0,5.3-0.2,7.5-1.7c4.4-2.9,4.7-6.5,5.8-9.9
		c0.4-1.4,1-2.7,1.9-3.8c0.1-0.2,0.3-0.4,0.5-0.5c4-4.2,7.7-2,11-6.2c1.5-2,2.4-4.5,2.5-7c0-1.7,0.3-3.3,0.8-4.9
		c1.3-3.1,4.6-8.1,5.3-10.1c-0.5,0.6-1,1.1-1.6,1.6l-0.1,0.1c-2.4,2.3-5.8,3.4-9.1,3.1c-0.6,0-1.2-0.1-1.8-0.2
		c-6.3-0.9-9.6-0.7-11.8,1.6l-0.1,0.1c-2.2,2.4-3.1,4.6-4.8,5.3c-0.9,0.2-1.8,0.3-2.7,0.2l0,0c-2.4,0-5.4-0.2-7.2,0.7
		c-1.5,0.7-2.6,2.4-3.7,3.9c-0.7,1.1-1.7,2.1-2.9,2.7c-0.8,0.2-1.6,0.3-2.4,0.2c-2.8-0.2-6.8-1-9.6,0.2c-0.4,0.2-0.8,0.4-1.2,0.7
		c-3.5,2.9-5.3,7.5-7.3,9s-4.6,0.9-5.9,3.5s0.9,8.4,0,10.8s-5,1.6-5.7,5.1C79.2,325.8,82.5,331.5,81.4,335.2z"/>
	<path class="st20" d="M158.2,271.6c-3.9,4.1-8.3,7.8-13,11c-4.7,3.3-9.5,6.2-14.6,8.9c-5,2.7-10.3,4.9-15.3,7.4
		c-5.1,2.4-9.9,5.4-14.3,8.9c-2.2,1.7-4.2,3.7-6,5.9c-1.7,2.1-3.2,4.6-4.8,6.9c-3.1,4.7-6.4,9.4-7.8,14.7c-0.7,2.6-1.2,5.5-1.6,8.2
		s-0.8,5.6-1.2,8.4c-0.8,5.6-1.3,11.2-1.4,16.8h-2.6c0.3-5.7,0.9-11.4,1.8-17.1c0.4-2.8,0.9-5.6,1.4-8.4c0.5-2.8,1.1-5.7,1.8-8.4
		c0.8-2.8,2-5.5,3.6-8c1.5-2.5,3.1-4.8,4.8-7.1s3.2-4.7,5.1-6.9c1.9-2.2,4-4.2,6.3-6c4.6-3.4,9.5-6.4,14.8-8.7
		c5.1-2.5,10.4-4.5,15.5-7.1c5.1-2.6,10-5.4,14.7-8.6C149.9,279.2,154.2,275.7,158.2,271.6z"/>
	<path class="st21" d="M138.2,300.4c0.1-0.2,0.3-0.4,0.5-0.5c4-4.2,7.7-2,11-6.2c1.5-2,2.4-4.5,2.5-7c-5.5,2.5-18.6,7.3-20.1,9.2
		C130.9,297.3,134.5,299.2,138.2,300.4z"/>
	<path class="st21" d="M129,287.5c6.4-0.3,14.3-6.9,18.5-11.1c-0.6,0-1.2-0.1-1.8-0.2c-6.3-0.9-9.6-0.7-11.8,1.6
		C132,282.1,129.9,286.5,129,287.5z"/>
	<path class="st21" d="M115.3,288.1v5.3c5.6-1.4,9.2-5.7,11-9.9c-2.4,0-5.4-0.2-7.2,0.7C117.6,284.9,116.4,286.6,115.3,288.1z"/>
	<path class="st21" d="M112,312.1c3.9,0.2,7.7,1.5,10.9,3.7l0,0c2.6,0,5.3-0.2,7.6-1.7c4.4-2.9,4.7-6.5,5.8-9.9
		c-3.9-1.1-8.1-1.5-12.2-1.1c-6.2,0.7-15.2,2.4-16.9,4.4S107.2,312.1,112,312.1z"/>
	<path class="st21" d="M99.9,301.4c2.9-0.2,7.5-5.3,10.2-10.4c-2.8-0.2-6.8-1-9.6,0.2C100,295.9,97.3,301.5,99.9,301.4z"/>
	<path class="st21" d="M105.1,321.7c2,0.6,3.9,1.4,5.6,0.8c1.4-0.5,2.2-1.8,3-3.1c-2.2-1.5-4.6-2.7-7.2-3.5c-2.1-0.6-8.3-2-9,0
		C97.1,317,101.2,319.3,105.1,321.7z"/>
	
		<linearGradient id="SVGID_3_" gradientUnits="userSpaceOnUse" x1="-2793.491" y1="437.3288" x2="-2737.261" y2="392.0588" gradientTransform="matrix(-1 0 0 1 -2732.97 -99)">
		<stop  offset="0" style="stop-color:#2CB860"/>
		<stop  offset="1" style="stop-color:#7FE67F"/>
	</linearGradient>
	<path class="st23" d="M60.4,342.4c-5.4-4.9-9.7-2.4-11.9-4s-0.5-5.7-3.3-6.8c-1.1-0.3-2.3-0.3-3.4,0.1c-1.6,0.4-3,1.1-4.4,0.6
		c-1-0.5-1.9-1.4-2.3-2.5c-0.6-1.2-1.6-2.1-2.9-2.6c-1.5-0.2-2.9-0.3-4.4-0.2l0,0c-2.1,0.2-4.2-0.3-6-1.3c-3.4-2.3-3.7-5.1-4.5-7.8
		c-0.3-1.1-0.8-2.1-1.5-3c-0.1-0.2-0.2-0.3-0.4-0.4c-3.1-3.3-6.1-1.5-8.6-4.8c-1.2-1.6-1.8-3.5-1.9-5.5c0-1.3-0.3-2.6-0.7-3.9
		c-1-2.4-3.6-6.4-4.2-8c0.4,0.5,0.8,0.9,1.2,1.3l0.1,0c1.9,1.8,4.5,2.7,7.2,2.5c0.5,0,1,0,1.4-0.1c4.9-0.7,7.5-0.5,9.3,1.3l0.1,0.1
		c1.8,1.9,2.4,3.6,3.8,4.1c0.7,0.2,1.4,0.2,2.1,0.2l0,0c1.9,0,4.3-0.2,5.7,0.5c1.2,0.8,2.2,1.9,2.9,3.1c0.6,0.9,1.3,1.6,2.3,2.1
		c0.6,0.2,1.3,0.2,1.9,0.1c2.2-0.1,5.4-0.8,7.6,0.2c0.3,0.1,0.6,0.3,0.9,0.6c2.8,2.2,4.2,5.9,5.7,7.1s3.6,0.7,4.7,2.8
		s-0.7,6.6,0,8.5s4,1.3,4.5,4C62.2,335,59.6,339.5,60.4,342.4z"/>
	<path class="st20" d="M0,292.4c3.1,3.3,6.5,6.2,10.2,8.7c3.7,2.6,7.5,4.9,11.4,7c4,2.1,8.1,3.9,12.1,5.9c4,1.9,7.8,4.3,11.3,7
		c1.7,1.4,3.3,2.9,4.7,4.6c1.3,1.7,2.5,3.6,3.8,5.5c2.5,3.7,5.1,7.4,6.1,11.6c0.5,2.1,0.9,4.3,1.3,6.5s0.7,4.4,1,6.6
		c0.6,4.4,1,8.8,1.1,13.2h2.1c-0.2-4.5-0.7-9-1.4-13.5c-0.3-2.2-0.7-4.4-1.1-6.6s-0.8-4.4-1.4-6.6c-0.7-2.2-1.6-4.3-2.9-6.3
		c-1.2-1.9-2.5-3.8-3.7-5.6s-2.5-3.7-4-5.5c-1.5-1.7-3.1-3.3-4.9-4.7c-3.6-2.7-7.5-5-11.6-6.9c-4-2-8.2-3.6-12.2-5.6
		c-4-2-7.8-4.3-11.5-6.8C6.6,298.4,3.1,295.5,0,292.4z"/>
	<path class="st21" d="M15.8,315c-0.1-0.2-0.2-0.3-0.4-0.4c-3.1-3.3-6.1-1.6-8.7-4.9c-1.2-1.6-1.8-3.5-1.9-5.5
		c4.3,2,14.6,5.8,15.8,7.2C21.5,312.5,18.6,314.1,15.8,315z"/>
	<path class="st21" d="M23,304.8c-5-0.3-11.3-5.4-14.6-8.7c0.5,0,1-0.1,1.5-0.1c4.9-0.7,7.5-0.5,9.3,1.3
		C20.6,300.6,22.3,304.1,23,304.8z"/>
	<path class="st21" d="M33.8,305.3v4.2c-3.9-1.1-7.1-4-8.6-7.8c1.9,0,4.3-0.2,5.7,0.5C32,303,33,304.1,33.8,305.3z"/>
	<path class="st21" d="M36.4,324.2c-3.1,0.2-6,1.2-8.6,2.9l0,0c-2.1,0.2-4.2-0.3-6-1.3c-3.4-2.3-3.7-5.1-4.5-7.8
		c3.1-0.9,6.4-1.2,9.6-0.8c4.8,0.5,11.9,1.9,13.3,3.5S40.2,324.2,36.4,324.2z"/>
	<path class="st21" d="M45.9,315.7c-2.3-0.1-5.9-4.2-8-8.2c2.2-0.1,5.4-0.8,7.6,0.2C45.8,311.4,48,315.9,45.9,315.7z"/>
	<path class="st21" d="M41.8,331.8c-1.6,0.4-3,1.1-4.4,0.6c-1-0.5-1.9-1.4-2.3-2.5c1.7-1.2,3.6-2.1,5.6-2.7c1.7-0.5,6.6-1.5,7.1,0
		C48.1,328.1,44.8,329.9,41.8,331.8z"/>
	<path class="st5" d="M94.9,368.9v51.5c0,2.2-1.8,4-4,4H49.2c-2.2,0-4-1.8-4-4v-51.5H94.9z"/>
	<rect x="53.4" y="424.4" class="st4" width="33.2" height="3.6"/>
	<polygon class="st0" points="94.9,391.8 94.9,406.7 88.4,393 79.2,412.3 70.1,393 60.9,412.3 51.7,393 45.2,406.7 45.2,391.8 
		51.7,378.2 60.9,397.4 70.1,378.2 79.2,397.4 88.4,378.2 	"/>
	<path class="st15" d="M172,97.2c10.6-4.4,23.1,3.6,19.8,17c-2.5,10.3-20,41-23.6,43.4c-2.3-7-20.9-18.4-24.5-17.1
		C144.6,134.8,160.4,102,172,97.2z"/>
	<path class="st3" d="M213.4,106.7c-9.9,0.5-24-9.6-25.1-11.8c7.8-0.4,16.5-1.3,21.2-1.2c0,0,10.6,1,14.1,1.7
		C224.2,95.6,228.8,106,213.4,106.7z"/>
	<path class="st24" d="M422.9,208.2v-10.4h37.8c2.3,0,4.4,1.6,5,3.9c0.1,0.4,0.2,0.9,0.2,1.3c0,2.9-2.3,5.2-5.2,5.2l0,0H422.9z"/>
	<path class="st25" d="M456.1,203c0-0.1,0-0.3,0-0.4v-0.1c0-0.1,0-0.3-0.1-0.4V202c0-0.1,0-0.2-0.1-0.3c-0.1-0.3-0.2-0.7-0.4-1
		c-0.1-0.1-0.2-0.3-0.3-0.4l0,0c-0.1-0.1-0.2-0.3-0.3-0.4l0-0.1c-0.1-0.1-0.2-0.2-0.3-0.3c-0.2-0.1-0.3-0.3-0.5-0.4l0,0
		c-0.7-0.5-1.6-0.7-2.5-0.7h-32.3v9.1h33.1c0.1,0,0.2-0.1,0.3-0.1h0c0.1,0,0.3-0.1,0.4-0.1c0.2-0.1,0.3-0.1,0.5-0.2
		c0.1-0.1,0.2-0.1,0.3-0.2l0,0c0.1-0.1,0.2-0.1,0.3-0.2c0.3-0.2,0.5-0.5,0.7-0.8l0.2-0.2c0.1-0.1,0.1-0.2,0.1-0.3
		c0.1-0.1,0.1-0.2,0.2-0.3c0.1-0.2,0.2-0.3,0.2-0.5c0-0.1,0-0.1,0.1-0.2C456,204,456.1,203.5,456.1,203z"/>
	<path class="st5" d="M454.1,199.7c0,2.5-2,4.5-4.5,4.5h-30.2v3.2h32.2c2.5,0,4.5-2,4.5-4.6c0-1.5-0.8-3-2.1-3.8
		C454,199.4,454.1,199.5,454.1,199.7z"/>
	<path class="st4" d="M455.9,204.3c-0.4,0.6-0.9,1-1.6,1.4c-0.7,0.4-1.4,0.5-2.1,0.5H420l-0.2-1.9l-0.1-1.6l-0.3-3.6l0-0.6v9.1h32.2
		c0.1,0,0.3,0,0.4,0c0.1,0,0.2,0,0.2,0h0.3c0.1,0,0.2-0.1,0.3-0.1h0c0.1,0,0.3-0.1,0.4-0.1c0.2-0.1,0.3-0.1,0.5-0.2
		c0.1-0.1,0.2-0.1,0.3-0.2l0,0c0.1-0.1,0.2-0.1,0.3-0.2c0.3-0.2,0.5-0.5,0.7-0.7c0.1-0.1,0.1-0.1,0.2-0.2c0.1-0.1,0.1-0.2,0.1-0.3
		c0.1-0.1,0.1-0.2,0.2-0.3c0.1-0.2,0.2-0.3,0.2-0.5C455.8,204.5,455.8,204.4,455.9,204.3z"/>
	<path class="st26" d="M456.7,203c0-2.8-2.2-5.1-5-5.2h-33.6v1.3h33.5c2.1,0,3.9,1.7,3.9,3.9l0,0c0,2.1-1.7,3.9-3.9,3.9h-33.5v1.3
		h33.5C454.4,208.2,456.7,205.9,456.7,203L456.7,203L456.7,203z"/>
	<path class="st27" d="M428,197.8v-11.7h40.2c3.2,0,5.9,2.6,5.9,5.9s-2.6,5.9-5.9,5.9L428,197.8z"/>
	<path class="st25" d="M463.1,191.9c0-0.1,0-0.3,0-0.4c0,0,0-0.1,0-0.1c0-0.2,0-0.3-0.1-0.5c0-0.1-0.1-0.3-0.1-0.4l-0.1-0.1
		c0-0.1-0.1-0.2-0.1-0.4v0c0-0.1-0.1-0.2-0.2-0.3c-0.1-0.2-0.2-0.4-0.3-0.5l-0.2-0.2c-0.1-0.1-0.2-0.3-0.3-0.4l-0.2-0.2l-0.2-0.2
		l-0.2-0.1l-0.1-0.1c-0.1,0-0.1-0.1-0.2-0.1c-0.8-0.5-1.8-0.8-2.8-0.8h-34v10.2h34.5l0.5-0.1h0.2c0.1,0,0.2,0,0.4-0.1h0.1l0.4-0.1
		c0.2-0.1,0.5-0.2,0.7-0.3l0.3-0.2h0l0.4-0.3l0,0l0.3-0.3c0.3-0.3,0.5-0.6,0.7-0.9c0.1-0.1,0.1-0.2,0.1-0.2c0.1-0.1,0.1-0.2,0.1-0.3
		c0.1-0.1,0.1-0.2,0.2-0.4c0-0.1,0.1-0.3,0.1-0.4C463.1,193.1,463.2,192.5,463.1,191.9z"/>
	<path class="st5" d="M463.1,191.9c0-0.1,0-0.3,0-0.4c0,0,0-0.1,0-0.1c0-0.2,0-0.3-0.1-0.5c0-0.1-0.1-0.3-0.1-0.4l-0.1-0.1
		c0-0.1-0.1-0.2-0.1-0.4v0c0-0.1-0.1-0.2-0.2-0.3c-0.1-0.2-0.2-0.4-0.3-0.5l-0.2-0.2c-0.1-0.1-0.2-0.3-0.3-0.4l-0.2-0.2l-0.2-0.2
		l-0.2-0.1l-0.1-0.1c-0.1,0-0.1-0.1-0.2-0.1c0,0.2,0,0.4,0,0.6c0,0.1,0,0.2,0,0.3c-0.1,2.7-2.4,4.8-5.1,4.8h-31.6v3.7h34.4l0.4-0.1
		h0.2c0.1,0,0.2,0,0.4-0.1h0.1l0.4-0.1c0.2-0.1,0.5-0.2,0.7-0.3l0.3-0.2h0l0.4-0.3l0,0l0.3-0.3c0.3-0.3,0.5-0.6,0.7-0.9
		c0.1-0.1,0.1-0.2,0.1-0.2c0.1-0.1,0.1-0.2,0.1-0.3c0.1-0.1,0.1-0.2,0.2-0.4c0-0.1,0.1-0.3,0.1-0.4
		C463.1,193.1,463.2,192.5,463.1,191.9z"/>
	<path class="st4" d="M462.9,193.4c-0.4,0.6-1,1.2-1.7,1.5c-0.7,0.4-1.6,0.6-2.4,0.6h-33.9l-0.2-2.2l-0.5-5.8l0-0.7v10.3h34.5
		l0.4-0.1h0.2c0.1,0,0.2,0,0.4-0.1h0.1l0.4-0.1c0.2-0.1,0.5-0.2,0.7-0.3l0.3-0.2h0l0.4-0.3l0,0l0.3-0.3c0.3-0.3,0.5-0.6,0.7-0.9
		c0.1-0.1,0.1-0.2,0.1-0.2c0.1-0.1,0.1-0.2,0.1-0.3c0.1-0.1,0.1-0.2,0.2-0.4C462.8,193.8,462.9,193.6,462.9,193.4z"/>
	<path class="st9" d="M463.9,191.9c0-3.2-2.6-5.9-5.9-5.9c0,0,0,0,0,0h-35.4v1.5H458c2.4,0,4.4,1.9,4.4,4.4c0,0,0,0,0,0l0,0
		c0,2.4-2,4.4-4.4,4.4l0,0h-35.4v1.5H458C461.2,197.7,463.8,195.2,463.9,191.9z"/>
	<polygon class="st28" points="440.4,132.4 406,199.4 307,199.4 310.8,192 341.4,132.4 	"/>
	<polygon class="st29" points="341.4,132.4 337.2,132.4 303.1,199.4 307,199.4 	"/>
	<polygon class="st29" points="406,199.4 399.4,209.6 249.9,209.6 249.9,199.4 	"/>
	<polygon class="st30" points="401.7,132.4 310.8,192 341.4,132.4 	"/>
	<path class="st30" d="M379.2,167.5c0,3-2.5,5.5-5.5,5.5c-3,0-5.5-2.5-5.5-5.5s2.5-5.5,5.5-5.5l0,0
		C376.7,162,379.2,164.4,379.2,167.5C379.2,167.4,379.2,167.5,379.2,167.5z"/>
	<polygon class="st30" points="406,199.4 399.4,209.6 353.6,209.6 361.3,199.4 	"/>
</g>
</svg>
