<svg id="bc7646eb-73ea-4804-9afd-b450058851dd" xmlns="http://www.w3.org/2000/svg" viewBox="0 0 797.5 741.62"><defs><style>.cls-1{fill:#e6e6e6;}.cls-2{fill:#3f3d56;}.cls-3{fill:#fff;}.cls-4{fill:#6c63ff;}.cls-5{fill:#0028b3;}.cls-6{fill:#2f2e41;}.cls-7{fill:#ffb8b8;}.cls-8{fill:#d0cde1;}</style></defs><title>lala</title><ellipse class="cls-1" cx="398.75" cy="723.62" rx="398.75" ry="18"/><path class="cls-2" d="M428,173h-4V63.4A63.4,63.4,0,0,0,360.6,0H128.51a63.41,63.41,0,0,0-63.4,63.4h0v601a63.41,63.41,0,0,0,63.4,63.4H360.6a63.4,63.4,0,0,0,63.4-63.4h0V250.92h4Z"/><path class="cls-3" d="M363.16,16.49h-30.3a22.5,22.5,0,0,1-20.82,31h-133a22.49,22.49,0,0,1-20.83-31H130A47.34,47.34,0,0,0,82.61,63.84h0v600.1A47.34,47.34,0,0,0,130,711.28H363.16a47.35,47.35,0,0,0,47.35-47.34h0V63.84A47.35,47.35,0,0,0,363.16,16.49Z"/><rect class="cls-4" x="196.32" y="177.7" width="82.66" height="7.68"/><rect class="cls-1" x="196.32" y="204.26" width="144.07" height="7.68"/><rect class="cls-1" x="196.32" y="230.81" width="143.93" height="7.68"/><rect class="cls-5" x="117.78" y="177.82" width="61.41" height="61.41"/><rect class="cls-4" x="196.32" y="338.9" width="82.66" height="7.68"/><rect class="cls-1" x="196.32" y="365.46" width="144.07" height="7.68"/><rect class="cls-1" x="196.32" y="392.01" width="143.93" height="7.68"/><rect class="cls-5" x="117.78" y="339.02" width="61.41" height="61.41"/><rect class="cls-4" x="196.32" y="500.1" width="82.66" height="7.68"/><rect class="cls-1" x="196.32" y="526.66" width="144.07" height="7.68"/><rect class="cls-1" x="196.32" y="553.21" width="143.93" height="7.68"/><rect class="cls-5" x="117.78" y="500.22" width="61.41" height="61.41"/><circle class="cls-6" cx="658.99" cy="300.24" r="30.45"/><path class="cls-7" d="M675,320.51s-.46,18.8,1.37,19.26-25.21,7.79-25.21,7.79l-2.75-25.67Z"/><path class="cls-7" d="M461.39,481s-20.17,0-20.63-2.29-4.58,18.8-4.58,18.8l8.25,2.75s15.59-6.88,17-6.88S461.39,481,461.39,481Z"/><path class="cls-6" d="M439.39,489.21s3.66-12.37,8.25-12.83c0,0-15.59-10.09-16.05-13.3s-6-11.46-8.25-8.71-2.29,46.31,1.84,50.89,22.46-6.44,22.46-6.44S436.18,493.8,439.39,489.21Z"/><polygon class="cls-7" points="688.31 664.79 691.98 684.5 675.02 687.26 675.02 664.79 688.31 664.79"/><path class="cls-6" d="M688.31,682.21s2.75-8.71,4.59-7.33S697.48,685,697,687.26s-3.66,20.17-2.29,23.38-6.87,19.71-17.42,18.33-9.63-10.54-9.63-10.54l3.67-14.21,1.38-22.47S684.65,679.92,688.31,682.21Z"/><circle class="cls-6" cx="669.64" cy="268.19" r="12.6"/><path class="cls-6" d="M686.44,261.37a12.6,12.6,0,0,0-11.29-12.53,11.62,11.62,0,0,1,1.31-.07,12.6,12.6,0,1,1,0,25.2,11.62,11.62,0,0,1-1.31-.07A12.6,12.6,0,0,0,686.44,261.37Z"/><circle class="cls-7" cx="658.97" cy="314.1" r="19.25"/><path class="cls-5" d="M697,448s-.91,22.92-4.58,34.84S675.55,579.6,678.3,586s16.89,77.4,13.68,81.52-18.34,2.75-18.34,2.75l-20.55-86.1s4-95-29.87-97.27-89.4-3.66-89.4-3.66S498.07,493.8,482,493.34s-25.21,4.13-25.21,4.13l-2.75-18.8,71.05-15.59s65.1-22.46,100.86-16.5S697,448,697,448Z"/><path class="cls-8" d="M671.35,333.81s5.5-3.21,6.88,0,11,6,14.67,3.21,12.83.91,12.83.91l10.09,29.8s-5,25.67-9.63,39.88-6.42,43.56-4.58,46.31-36.68,13.75-55.47,6.87-22.92-14.67-22.92-14.67S643.85,416.78,637,403s-1.38-29.34-1.38-29.34l-2.75-15.59,15.59-8.71s.92-8.25,4.58-8.25S671.35,333.81,671.35,333.81Z"/><path class="cls-8" d="M639.72,358.56h-6.88a15.4,15.4,0,0,0-4.58,14.21c1.83,8.71,10.1,37.59,10.1,37.59l6.86-17.87Z"/><path class="cls-7" d="M620,432.18s-13.71,14.86-3.63,22.65S628.91,437,628.91,437Z"/><path class="cls-8" d="M639.72,401.2,636.51,414,631,424.12s-18.8,12.38-18.8,17c0,0,8.26-10.54,18.8,0l9.4-22.69Z"/><ellipse class="cls-6" cx="655.45" cy="293.79" rx="21" ry="12.6"/><path class="cls-7" d="M697,294.84s-14.67-8.25-20.63-2.29,17.88,15.13,17.88,15.13Z"/><path class="cls-8" d="M702.52,340.23l3.21-2.3s3.67-5.5,6.88-3.66,22-6.88,22-6.88-6.87,3.21-6.87-2.29-.92-4.59-5.5-4.59-4.59,2.3-6.42-.91-.92-5.05-4.13-3.21-6.87.46-7.79-.92-17.42-3.67-17.42-3.67,6.42-18.79,7.79-20.17S731,305.84,731,305.84s44.47,12.38,33,26.59-52.71,35.76-52.71,35.76Z"/></svg>