<svg id="Layer_1" data-name="Layer 1" xmlns="http://www.w3.org/2000/svg" viewBox="0 0 246.1 253.56"><defs><style>.cls-1{fill:#fff;stroke:#231f20;stroke-miterlimit:10;}.cls-2{fill:#ec3c3c;}</style></defs><title>Untitled-1</title><path class="cls-1" d="M178.06,113.17c-33.87.49-118.23,34.79-117.34,75.72.54,25.15,32.78,29.46,33.52,57.23.83,30.86-38.59,41-36.41,67.05,2.22,26.65,46,46.9,78.61,51.44,49.62,6.92,87.65-20.55,100-29.48,37.39-27,77.47-80.11,63.58-116.76-5.43-14.33-26.58-18.79-37-45.09-1.82-4.59-2.35-7.23-5.78-15.6-8.13-19.82-12.19-29.73-19.65-35.26-6.86-5.09-16.87-6.42-37-8.1A220.91,220.91,0,0,0,178.06,113.17Z" transform="translate(-57.24 -112.66)"/><path class="cls-2" d="M-65.87,57.1" transform="translate(-57.24 -112.66)"/><path class="cls-1" d="M246.84,131.09C108.37,201.36,70.38,211.68,65.92,204.5c-6.65-10.7,56.78-67.31,71.68-57.23,10.15,6.87-10.71,39,3.46,59,12.68,17.82,46.77,16.6,81.51,9.83" transform="translate(-57.24 -112.66)"/><path class="cls-1" d="M271.58,188.44a246.22,246.22,0,0,0-62,17.73c-19.5,8.5-36.59,16-52.94,32.43-6.92,7-7.64,9.53-13.87,13.87-21.55,15-51.56,12.78-52.14,9.38-.74-4.35,44.36-23.47,62.54-7.64,8,7,8.09,18.45,8.09,20.81.09,23.56-26.71,45.2-51.44,51.44-16.74,4.23-31.13,1-32.37,5.78S90,344.51,91.93,345.54c28.67,15.45,84.6,18.67,112.72-12.14,12.25-13.43,10.77-36.28,28.83-66.31.23-.39,2-3.32,4.69-7.1,12.22-17.17,30.57-34,38.15-29.48a31.19,31.19,0,0,0,6.94,3.47c2,.68,5.81,2,6.36,1.15,1.21-1.87-16-10.24-31.22-28.9-6.58-8.08-8.5-12.85-15.6-16.18-8.73-4.1-17.52-2.38-20.81-1.74-26.49,5.18-62.26,49.46-48,76.3,5.26,9.88,27.68,10.86,71.68,13.3,1.6.09,5,.23,6.36-1.74,3.2-4.5-6.72-16.06-13.3-24.85-3.94-5.27-39.54-53.66-26.59-75.72,3.54-6,10.94-10.51,13-11.73,10.27-6.21,20-6.44,20-6.77-.12-.87-64.56,8.56-64.74,7.51-.12-.69,26.87-13.3,52.6-4.62,36.93,12.45,63.89,66.26,48.56,91.91-.74,1.23-7.17,12-14.45,11-24-3.32-15.94-128.54-48.56-135.26-7.85-1.62-22.58,2.7-37,6.93a66,66,0,0,0-13.88,5.74c-5.81,3.22-12,6.67-15.6,13.34-.83,1.55-3.47,6.9-2.46,16.72,2,19.86,16.54,34.42,19.22,37,33.55,32.81,74.3,14.85,95.95,45.66,2.17,3.08,11.6,16.5,7.52,28.9-6,18.35-37.95,23.22-75.15,28.91-21.61,3.3-32.42,4.95-39.88,1.73-33.93-14.63-34.07-79.77-34.11-99.42-.09-47.08,15-83.6,16.77-83.24,1.38.28-5.56,23.69-2.31,57.23a189.38,189.38,0,0,0,8.67,41" transform="translate(-57.24 -112.66)"/></svg>